M48
; DRILL file {KiCad 7.99.0-unknown-5ea170baab~172~ubuntu22.04.1} date 2023-09-19T12:12:05+0300
; FORMAT={-:-/ absolute / metric / decimal}
; #@! TF.CreationDate,2023-09-19T12:12:05+03:00
; #@! TF.GenerationSoftware,Kicad,Pcbnew,7.99.0-unknown-5ea170baab~172~ubuntu22.04.1
; #@! TF.FileFunction,Plated,1,2,PTH
FMAT,2
METRIC
; #@! TA.AperFunction,Plated,PTH,ViaDrill
T1C0.500
; #@! TA.AperFunction,Plated,PTH,ViaDrill
T2C2.000
%
G90
G05
T1
X150.0Y-50.0
X150.0Y-60.0
X150.0Y-70.0
X150.0Y-80.0
X150.0Y-90.0
X150.0Y-100.0
X150.0Y-110.0
X150.0Y-120.0
X170.0Y-50.0
X170.0Y-60.0
X170.0Y-70.0
X170.0Y-80.0
X170.0Y-90.0
X170.0Y-100.0
X170.0Y-110.0
X170.0Y-120.0
X190.0Y-50.0
X190.0Y-60.0
X190.0Y-70.0
X190.0Y-80.0
X190.0Y-90.0
X190.0Y-100.0
X190.0Y-110.0
X190.0Y-120.0
T2
X160.0Y-50.0
X160.0Y-60.0
X160.0Y-70.0
X160.0Y-80.0
X160.0Y-90.0
X160.0Y-100.0
X160.0Y-110.0
X160.0Y-120.0
X180.0Y-50.0
X180.0Y-60.0
X180.0Y-70.0
X180.0Y-80.0
X180.0Y-90.0
X180.0Y-100.0
X180.0Y-110.0
X180.0Y-120.0
X200.0Y-50.0
X200.0Y-60.0
X200.0Y-70.0
X200.0Y-80.0
X200.0Y-90.0
X200.0Y-100.0
X200.0Y-110.0
X200.0Y-120.0
T0
M30
