%TF.GenerationSoftware,KiCad,Pcbnew,7.99.0-unknown-5ea170baab~172~ubuntu22.04.1*%
%TF.CreationDate,2023-09-19T12:12:01+03:00*%
%TF.ProjectId,drill_file_creator,6472696c-6c5f-4666-996c-655f63726561,rev?*%
%TF.SameCoordinates,Original*%
%TF.FileFunction,Copper,L1,Top*%
%TF.FilePolarity,Positive*%
%FSLAX46Y46*%
G04 Gerber Fmt 4.6, Leading zero omitted, Abs format (unit mm)*
G04 Created by KiCad (PCBNEW 7.99.0-unknown-5ea170baab~172~ubuntu22.04.1) date 2023-09-19 12:12:01*
%MOMM*%
%LPD*%
G01*
G04 APERTURE LIST*
%TA.AperFunction,ViaPad*%
%ADD10C,3.000000*%
%TD*%
%TA.AperFunction,ViaPad*%
%ADD11C,1.000000*%
%TD*%
G04 APERTURE END LIST*
D10*
%TO.N,*%
X200000000Y-120000000D03*
X200000000Y-110000000D03*
X200000000Y-90000000D03*
X200000000Y-70000000D03*
X200000000Y-50000000D03*
X200000000Y-60000000D03*
X200000000Y-100000000D03*
X200000000Y-80000000D03*
D11*
X190000000Y-120000000D03*
X190000000Y-110000000D03*
X190000000Y-90000000D03*
X190000000Y-70000000D03*
X190000000Y-50000000D03*
X190000000Y-60000000D03*
X190000000Y-100000000D03*
X190000000Y-80000000D03*
D10*
X180000000Y-120000000D03*
X180000000Y-110000000D03*
X180000000Y-90000000D03*
X180000000Y-70000000D03*
X180000000Y-50000000D03*
X180000000Y-60000000D03*
X180000000Y-100000000D03*
X180000000Y-80000000D03*
D11*
X170000000Y-120000000D03*
X170000000Y-110000000D03*
X170000000Y-90000000D03*
X170000000Y-70000000D03*
X170000000Y-50000000D03*
X170000000Y-60000000D03*
X170000000Y-100000000D03*
X170000000Y-80000000D03*
D10*
X160000000Y-120000000D03*
X160000000Y-110000000D03*
X160000000Y-90000000D03*
X160000000Y-70000000D03*
X160000000Y-50000000D03*
X160000000Y-60000000D03*
X160000000Y-100000000D03*
X160000000Y-80000000D03*
D11*
X150000000Y-120000000D03*
X150000000Y-110000000D03*
X150000000Y-100000000D03*
X150000000Y-90000000D03*
X150000000Y-80000000D03*
X150000000Y-70000000D03*
X150000000Y-60000000D03*
X150000000Y-50000000D03*
%TD*%
M02*
